# xmcd
#
# Track frame offsets:
#	150
#	7050
#	27000
#	52050
#	77925
#	99075
#	122475
#	155175
#	187950
#
# Disc length: 2654 seconds
#
# Revision: 0
# Processed by: cddbd v1.5.2PL0 Copyright (c) Steve Scherf et al.
# Submitted via: EasyCDDAExtractor 9.0.0.1
#
DISCID=6a0a5c09
DTITLE=Ozzy Osbourne - Long Beach Arena Long Beach 17-06-82 Disc 1
DYEAR=1982
DGENRE=Hard Rock
TTITLE0=Intro
TTITLE1=Over The Mountain
TTITLE2=Mr Crowley
TTITLE3=Crazy Train
TTITLE4=Revelation (Mother Earth)
TTITLE5=Steal Away (The Night)
TTITLE6=Suicide Solution
TTITLE7=Guitar Solo
TTITLE8=Drum Solo
EXTD=
EXTT0=
EXTT1=
EXTT2=
EXTT3=
EXTT4=
EXTT5=
EXTT6=
EXTT7=
EXTT8=
PLAYORDER=
